{"asset":{"generator":"3D Builder","version":"2.0"},"scene":0,"scenes":[{"nodes":[0]}],"nodes":[{"children":[1,2,3,4]},{"mesh":0,"matrix":[-0.99999994039535522,2.3841860752327193E-7,7.1054205813374238E-15,0,2.3841757013087772E-7,0.99999529123306274,3.5762616334977793E-7,0,-5.8564725334900314E-14,-3.3504440466458618E-7,-0.99999529123306274,0,-0.18735355138778687,0.022025126963853836,-0.031889200210571289,1]},{"mesh":1,"matrix":[-0.99999994039535522,2.3841860752327193E-7,7.1054205813374238E-15,0,2.3841757013087772E-7,0.99999529123306274,3.5762616334977793E-7,0,-5.8564725334900314E-14,-3.3504440466458618E-7,-0.99999529123306274,0,-0.18735355138778687,0.022025126963853836,-0.031889200210571289,1]},{"mesh":2,"matrix":[-0.99999994039535522,2.3841860752327193E-7,7.1054205813374238E-15,0,2.3841757013087772E-7,0.99999529123306274,3.5762616334977793E-7,0,-5.8564725334900314E-14,-3.3504440466458618E-7,-0.99999529123306274,0,-0.18735355138778687,0.022025126963853836,-0.031889200210571289,1]},{"mesh":3,"matrix":[-0.99999994039535522,2.3841860752327193E-7,7.1054205813374238E-15,0,2.3841757013087772E-7,0.99999529123306274,3.5762616334977793E-7,0,-5.8564725334900314E-14,-3.3504440466458618E-7,-0.99999529123306274,0,-0.18735355138778687,0.022025126963853836,-0.031889200210571289,1]}],"meshes":[{"primitives":[{"attributes":{"POSITION":0},"mode":4,"indices":1,"material":0}]},{"primitives":[{"attributes":{"POSITION":2},"mode":4,"indices":3,"material":0}]},{"primitives":[{"attributes":{"POSITION":4},"mode":4,"indices":5,"material":0}]},{"primitives":[{"attributes":{"POSITION":6},"mode":4,"indices":7,"material":0}]}],"materials":[{"name":"Metallic","pbrMetallicRoughness":{"baseColorFactor":[0,0,0,1],"metallicFactor":1,"roughnessFactor":0},"alphaMode":"OPAQUE"}],"accessors":[{"bufferView":0,"byteOffset":0,"count":164,"componentType":5126,"type":"VEC3","min":[-0.17346101999282837,-0.023141995072364807,-0.048117350786924362],"max":[-0.14311279356479645,-0.013716619461774826,-0.018201235681772232]},{"bufferView":1,"byteOffset":0,"count":984,"componentType":5125,"type":"SCALAR"},{"bufferView":2,"byteOffset":0,"count":972,"componentType":5126,"type":"VEC3","min":[-0.18800000846385956,-0.02629498578608036,-0.053914442658424377],"max":[0,0.061795257031917572,0.0229510348290205]},{"bufferView":3,"byteOffset":0,"count":5928,"componentType":5125,"type":"SCALAR"},{"bufferView":4,"byteOffset":0,"count":24,"componentType":5126,"type":"VEC3","min":[-0,0.04291248694062233,0.021639110520482063],"max":[0.00064644700614735484,0.047958321869373322,0.024257836863398552]},{"bufferView":5,"byteOffset":0,"count":132,"componentType":5125,"type":"SCALAR"},{"bufferView":6,"byteOffset":0,"count":362,"componentType":5126,"type":"VEC3","min":[-0.18800000846385956,-0,0.0020000000949949026],"max":[0,0.05993705615401268,0.025636045262217522]},{"bufferView":7,"byteOffset":0,"count":2196,"componentType":5125,"type":"SCALAR"}],"bufferViews":[{"buffer":0,"byteOffset":0,"byteLength":1968,"byteStride":12,"target":34962},{"buffer":0,"byteOffset":1968,"byteLength":3936,"target":34963},{"buffer":0,"byteOffset":5904,"byteLength":11664,"byteStride":12,"target":34962},{"buffer":0,"byteOffset":17568,"byteLength":23712,"target":34963},{"buffer":0,"byteOffset":41280,"byteLength":288,"byteStride":12,"target":34962},{"buffer":0,"byteOffset":41568,"byteLength":528,"target":34963},{"buffer":0,"byteOffset":42096,"byteLength":4344,"byteStride":12,"target":34962},{"buffer":0,"byteOffset":46440,"byteLength":8784,"target":34963}],"buffers":[{"byteLength":55224,"uri":"Bottom Compartment Pushed up v7.bin"}]}