{"asset":{"generator":"3D Builder","version":"2.0"},"scene":0,"scenes":[{"nodes":[0]}],"nodes":[{"mesh":0,"matrix":[0.99999994039535522,0,0,0,0,-1.1920928244535389E-7,-0.99999982118606567,0,0,0.99999982118606567,-1.1920928244535389E-7,0,0,-1.1920926745734306E-10,1.4210853735820158E-17,1]}],"meshes":[{"primitives":[{"attributes":{"POSITION":0},"mode":4,"indices":1,"material":0}]}],"materials":[{"name":"Metallic","pbrMetallicRoughness":{"baseColorFactor":[0.91309869289398193,0.87136721611022949,0.87136721611022949,1],"metallicFactor":1,"roughnessFactor":0.25},"alphaMode":"OPAQUE"}],"accessors":[{"bufferView":0,"byteOffset":0,"count":25626,"componentType":5126,"type":"VEC3","min":[-0.099940367043018341,-0.04067838191986084,1.1920929521291868E-10],"max":[0.10033330321311951,0.04068172350525856,0.0521768294274807]},{"bufferView":1,"byteOffset":0,"count":154608,"componentType":5125,"type":"SCALAR"}],"bufferViews":[{"buffer":0,"byteOffset":0,"byteLength":307512,"byteStride":12,"target":34962},{"buffer":0,"byteOffset":307512,"byteLength":618432,"target":34963}],"buffers":[{"byteLength":925944,"uri":"m3_e36_body glossy.bin"}]}